<svg xmlns="http://www.w3.org/2000/svg" height="40px" viewBox="0 -960 960 960" width="40px" fill="#5985E1"><path d="M773.33-246.67q27 0 46.84-19.83Q840-286.33 840-313.33v-500q0-27-19.83-46.84Q800.33-880 773.33-880H353.33q-27 0-46.83 19.83-19.83 19.84-19.83 46.84v80h66.66v-80h420v500h-80v66.66h80ZM186.67-80q-27 0-46.84-19.83Q120-119.67 120-146.67v-566.66q0-27 19.83-46.84Q159.67-780 186.67-780H606.67q27 0 46.83 19.83 19.83 19.84 19.83 46.84v566.66q0 27-19.83 46.84Q633.67-80 606.67-80H186.67Zm0-66.67H606.67v-566.66H186.67v566.66Zm0-566.66v566.66-566.66Z"/></svg> 