<svg xmlns="http://www.w3.org/2000/svg" height="40px" viewBox="0 -960 960 960" width="40px" fill="#5985E1"><path d="M773.33-120H186.67q-27 0-46.84-19.83Q120-159.67 120-186.67v-586.66q0-27 19.83-46.84Q159.67-840 186.67-840h163.66q8.34-35 36.34-57.5t62.66-22.5q34.67 0 62.84 22.5Q539.33-875 548-840h162.33q27 0 46.84 19.83Q776-800.33 776-773.33v540q0 27-19.83 46.84Q736.33-166.67 709.33-166.67H676V-120h97.33q27 0 46.84-19.83Q840-159.67 840-186.67v-586.66q0-27-19.83-46.84Q800.33-840 773.33-840ZM449.17-782.67q13.16 0 22.16-9.16 9-9.17 9-22.34 0-13.16-9.16-22.16-9.17-9-22.34-9-13.16 0-22.16 9.16-9 9.17-9 22.34 0 13.16 9.16 22.16 9.17 9 22.34 9Zm-262.5 596h420v-546.66h-80v80H266.67v-80h-80v546.66ZM433.33-560v-66.67H266.67V-560h166.66Zm0 126.67v-66.67H266.67v66.67h166.66ZM266.67-306.67V-373H433.33v66.33H266.67Z"/></svg> 